<?xml version="1.0" encoding="utf-8"?>
<!-- Generator: Adobe Illustrator 19.2.1, SVG Export Plug-In . SVG Version: 6.00 Build 0)  -->
<svg version="1.1" id="Layer_3" xmlns="http://www.w3.org/2000/svg" xmlns:xlink="http://www.w3.org/1999/xlink" x="0px" y="0px"
	 viewBox="0 0 417.8 85" style="enable-background:new 0 0 417.8 85;" xml:space="preserve">
<style type="text/css">
	.st0{fill:#134A9C;}
	.st1{fill:#77787B;}
</style>
<g>
	<g>
		<g>
			<g>
				<path class="st0" d="M41.5,48.1V26.5c0-3.2-0.6-5.6-1.9-7c-1.3-1.5-3.2-2.2-5.8-2.2c-3.4,0-5.9,0.9-7.5,2.8
					c-1.6,1.9-2.4,4.8-2.4,8.8v19.3h-3.1V25.6c0-5.6-2.5-8.3-7.6-8.3c-3.5,0-6,1-7.5,3c-1.6,2-2.4,5.2-2.4,9.7v18.2h-3V15.2h2.5
					l0.6,4.5h0.2c0.9-1.6,2.2-2.9,3.9-3.8c1.7-0.9,3.5-1.3,5.5-1.3c5.2,0,8.5,1.9,10,5.8h0.1c1.1-1.9,2.5-3.3,4.3-4.3
					c1.8-1,3.9-1.5,6.2-1.5c3.6,0,6.3,1,8.1,2.9c1.8,1.9,2.7,5,2.7,9.2v21.5H41.5z"/>
				<path class="st0" d="M75.1,48.1l-0.8-5.2h-0.2c-1.7,2.1-3.4,3.6-5.1,4.5c-1.7,0.9-3.8,1.3-6.2,1.3c-3.2,0-5.7-0.8-7.5-2.5
					c-1.8-1.7-2.7-3.9-2.7-6.9c0-3.2,1.3-5.7,4-7.5c2.7-1.8,6.5-2.7,11.6-2.8l6.3-0.2v-2.2c0-3.1-0.6-5.5-1.9-7.1
					c-1.3-1.6-3.3-2.4-6.2-2.4c-3,0-6.2,0.8-9.5,2.5l-1.1-2.6c3.6-1.7,7.2-2.5,10.7-2.5c3.6,0,6.3,0.9,8.1,2.8
					c1.8,1.9,2.7,4.8,2.7,8.8v21.9H75.1z M63,46c3.5,0,6.3-1,8.3-3s3-4.8,3-8.4v-3.2l-5.8,0.2c-4.6,0.2-7.9,0.9-9.9,2.2
					c-2,1.2-3,3.1-3,5.7c0,2.1,0.6,3.7,1.9,4.8C58.9,45.4,60.7,46,63,46z"/>
				<path class="st0" d="M100.1,14.5c2.4,0,4.4,0.4,6.2,1.3s3.3,2.4,4.7,4.5h0.2c-0.1-2.5-0.2-5-0.2-7.5V1h3v47.1h-2l-0.8-5h-0.2
					c-2.5,3.8-6.1,5.6-10.8,5.6c-4.5,0-8-1.4-10.4-4.2c-2.4-2.8-3.6-6.9-3.6-12.4c0-5.7,1.2-10,3.6-13.1
					C92.1,16.1,95.5,14.5,100.1,14.5z M100.1,17.3c-3.6,0-6.3,1.3-8.1,3.8s-2.7,6.2-2.7,11c0,9.3,3.6,14,10.9,14
					c3.7,0,6.4-1.1,8.2-3.2s2.6-5.7,2.6-10.7v-0.5c0-5.1-0.9-8.8-2.6-11C106.7,18.4,103.9,17.3,100.1,17.3z"/>
				<path class="st0" d="M138.3,48.7c-4.8,0-8.5-1.5-11.2-4.4c-2.7-2.9-4-7.1-4-12.4c0-5.3,1.3-9.5,3.9-12.6
					c2.6-3.2,6.1-4.7,10.5-4.7c3.9,0,6.9,1.4,9.2,4.1s3.4,6.4,3.4,11v2.4h-23.7c0,4.5,1.1,8,3.2,10.4c2.1,2.4,5,3.6,8.9,3.6
					c1.9,0,3.5-0.1,5-0.4c1.4-0.3,3.2-0.8,5.4-1.7v2.7c-1.9,0.8-3.6,1.4-5.2,1.7C141.9,48.6,140.1,48.7,138.3,48.7z M137.4,17.2
					c-3.2,0-5.7,1-7.6,3.1c-1.9,2.1-3,5.1-3.4,9h20.4c0-3.8-0.8-6.8-2.5-9C142.6,18.3,140.3,17.2,137.4,17.2z"/>
			</g>
			<g>
				<path class="st0" d="M181.3,20h-8.2v28.1h-7.2V20h-5.5v-3.3l5.5-2.2v-2.2c0-4,0.9-6.9,2.8-8.8c1.9-1.9,4.7-2.9,8.5-2.9
					c2.5,0,5,0.4,7.4,1.2l-1.9,5.4c-1.8-0.6-3.4-0.8-5-0.8c-1.6,0-2.8,0.5-3.5,1.5c-0.7,1-1.1,2.5-1.1,4.5v2.2h8.2V20z"/>
				<path class="st0" d="M216.7,31.3c0,5.5-1.4,9.7-4.2,12.8c-2.8,3.1-6.7,4.6-11.7,4.6c-3.1,0-5.9-0.7-8.3-2.1
					c-2.4-1.4-4.3-3.4-5.5-6.1c-1.3-2.6-1.9-5.7-1.9-9.2c0-5.4,1.4-9.7,4.2-12.7c2.8-3,6.7-4.6,11.8-4.6c4.8,0,8.7,1.6,11.5,4.7
					C215.3,21.8,216.7,26,216.7,31.3z M192.3,31.3c0,7.7,2.9,11.6,8.6,11.6c5.7,0,8.5-3.9,8.5-11.6c0-7.7-2.8-11.5-8.5-11.5
					c-3,0-5.2,1-6.5,3C193,24.8,192.3,27.6,192.3,31.3z"/>
				<path class="st0" d="M241.8,14c1.4,0,2.6,0.1,3.5,0.3l-0.7,6.6c-1-0.2-2.1-0.4-3.2-0.4c-2.8,0-5.2,0.9-6.9,2.8
					c-1.8,1.9-2.7,4.3-2.7,7.2v17.5h-7.1V14.6h5.6l0.9,5.9h0.4c1.1-2,2.6-3.6,4.3-4.8C237.9,14.6,239.8,14,241.8,14z"/>
			</g>
			<g>
				<path class="st0" d="M297.6,48.1V29.5c0-2.3-0.3-4.1-1-5.2c-0.6-1.2-1.6-1.7-3-1.7c-1.8,0-3.2,0.8-4,2.3c-0.8,1.6-1.3,4-1.3,7.3
					v16h-11.9V29.5c0-2.3-0.3-4.1-0.9-5.2c-0.6-1.2-1.6-1.7-2.9-1.7c-1.9,0-3.2,0.8-4.1,2.5c-0.8,1.7-1.3,4.4-1.3,8.1v15h-11.8V13.8
					h8.9l1.5,4.2h0.7c0.9-1.6,2.2-2.8,4-3.6c1.7-0.8,3.7-1.2,5.9-1.2c4.9,0,8.4,1.5,10.4,4.5h0.9c1-1.4,2.3-2.5,4-3.3
					c1.7-0.8,3.6-1.2,5.7-1.2c4.1,0,7.1,1,9,3.1s2.9,5.2,2.9,9.5v22.3H297.6z"/>
				<path class="st0" d="M350.3,30.9c0,5.6-1.5,10-4.5,13.1c-3,3.1-7.2,4.7-12.7,4.7c-5.2,0-9.4-1.6-12.4-4.8
					c-3.1-3.2-4.6-7.6-4.6-13c0-5.6,1.5-9.9,4.5-13c3-3.1,7.3-4.7,12.7-4.7c3.4,0,6.4,0.7,8.9,2.2c2.6,1.4,4.6,3.5,6,6.2
					C349.6,24.2,350.3,27.3,350.3,30.9z M328,30.9c0,2.9,0.4,5.2,1.2,6.7c0.8,1.5,2.1,2.3,4,2.3c1.8,0,3.1-0.8,3.9-2.3
					c0.8-1.5,1.1-3.8,1.1-6.7c0-2.9-0.4-5.1-1.2-6.6c-0.8-1.5-2.1-2.2-3.9-2.2c-1.8,0-3.1,0.7-3.9,2.2C328.4,25.7,328,27.9,328,30.9
					z"/>
				<path class="st0" d="M377.8,13.2c1,0,2,0.1,2.9,0.2l0.7,0.1l-1.1,11.2c-1-0.2-2.3-0.4-4-0.4c-2.6,0-4.5,0.6-5.6,1.8
					c-1.2,1.2-1.8,2.9-1.8,5.1v16.9H357V13.8h8.8l1.8,5.5h0.6c1-1.8,2.4-3.3,4.1-4.4C374.2,13.7,376,13.2,377.8,13.2z"/>
				<path class="st0" d="M402.7,48.7c-5.7,0-10.2-1.5-13.3-4.6c-3.2-3-4.7-7.4-4.7-13c0-5.8,1.5-10.2,4.4-13.3s7.1-4.7,12.5-4.7
					c5.2,0,9.2,1.3,12,4c2.8,2.7,4.2,6.6,4.2,11.6v5.3h-21.2c0.1,1.9,0.8,3.4,2.1,4.5s3.1,1.6,5.4,1.6c2.1,0,4-0.2,5.7-0.6
					c1.7-0.4,3.6-1.1,5.7-2v8.5c-1.9,1-3.8,1.6-5.8,2C407.8,48.5,405.5,48.7,402.7,48.7z M402,21.2c-1.4,0-2.6,0.4-3.5,1.3
					s-1.5,2.3-1.7,4.1h10.2c0-1.7-0.5-3-1.4-4C404.7,21.7,403.5,21.2,402,21.2z"/>
			</g>
		</g>
		<g>
			<path class="st1" d="M82.7,84.2c-1.5,0.6-3.1,0.8-4.9,0.8c-2.2,0-4-0.6-5.3-1.8c-1.3-1.2-1.9-2.9-1.9-5.1c0-2.3,0.7-4.1,2.1-5.4
				c1.4-1.4,3.4-2.1,5.8-2.1c1.2,0,2.5,0.2,3.9,0.5v2.8c-1.4-0.5-2.7-0.7-4-0.7c-1.4,0-2.5,0.4-3.4,1.3c-0.8,0.9-1.3,2-1.3,3.5
				c0,1.4,0.4,2.6,1.1,3.3c0.8,0.8,1.8,1.2,3.2,1.2c0.7,0,1.2-0.1,1.7-0.2v-4.8h2.9V84.2z M102.3,84.8h-8.4v-14h8.4v2.4h-5.5v3.3
				h5.2v2.3h-5.2v3.6h5.5V84.8z M125,84.8h-3.7l-5.4-9.4l0,9.4h-2.8v-14h3.7l5.4,9.4l-0.1-9.4h2.8V84.8z M145,84.8h-8.4v-14h8.4v2.4
				h-5.5v3.3h5.2v2.3h-5.2v3.6h5.5V84.8z M166.2,84.8h-3.5l-3.9-5.7v5.7h-2.9v-14c1-0.1,2.4-0.1,4.2-0.1c1.7,0,3,0.3,3.9,1
				c0.9,0.7,1.3,1.7,1.3,3c0,1-0.3,1.8-1,2.6c-0.6,0.7-1.5,1.2-2.6,1.4L166.2,84.8z M158.8,77c0.2,0,0.6,0,0.9,0
				c0.8,0,1.4-0.2,1.9-0.6c0.5-0.4,0.7-0.9,0.7-1.5c0-0.7-0.2-1.1-0.6-1.5c-0.4-0.3-1-0.5-1.9-0.5c-0.4,0-0.8,0-1,0.1V77z
				 M188.1,84.8h-3.2l-0.9-2.7h-5.3l-0.9,2.7h-2.9l4.9-14h3.3L188.1,84.8z M183.3,79.8l-1.9-5.4l-1.9,5.4H183.3z M205.7,84.8h-7.9
				v-14h2.9v11.5h5V84.8z M244.9,84.8h-3l-1.4-9.3l-3,9.3h-2.7l-3.1-9.1l-1.1,9.1h-2.9l2.1-14h3.4l3.1,9.4l3.2-9.4h3.3L244.9,84.8z
				 M261.3,70.6c2,0,3.6,0.6,4.8,1.8c1.2,1.2,1.8,3,1.8,5.2c0,2.2-0.6,4-1.9,5.3c-1.3,1.4-2.9,2-5,2c-2.1,0-3.7-0.6-4.9-1.9
				c-1.1-1.2-1.7-3-1.7-5.2c0-2.2,0.7-4,2-5.3C257.7,71.3,259.3,70.6,261.3,70.6z M261.2,82.4c1,0,1.9-0.4,2.6-1.2
				c0.7-0.8,1-2,1-3.4c0-1.5-0.3-2.7-0.9-3.4c-0.6-0.8-1.5-1.2-2.7-1.2c-1,0-1.9,0.4-2.6,1.2c-0.7,0.8-1,1.9-1,3.3
				c0,1.5,0.3,2.6,0.9,3.5C259.1,82,260,82.4,261.2,82.4z M286.5,73.3h-3.6v11.6H280V73.3h-3.6v-2.5h10.1V73.3z M301.9,70.6
				c2,0,3.6,0.6,4.8,1.8c1.2,1.2,1.8,3,1.8,5.2c0,2.2-0.6,4-1.9,5.3c-1.3,1.4-2.9,2-5,2c-2.1,0-3.7-0.6-4.9-1.9
				c-1.1-1.2-1.7-3-1.7-5.2c0-2.2,0.7-4,2-5.3C298.3,71.3,299.9,70.6,301.9,70.6z M301.7,82.4c1,0,1.9-0.4,2.6-1.2
				c0.7-0.8,1-2,1-3.4c0-1.5-0.3-2.7-0.9-3.4c-0.6-0.8-1.5-1.2-2.7-1.2c-1,0-1.9,0.4-2.6,1.2c-0.7,0.8-1,1.9-1,3.3
				c0,1.5,0.3,2.6,0.9,3.5C299.6,82,300.5,82.4,301.7,82.4z M329.2,84.8h-3.5l-3.9-5.7v5.7h-2.9v-14c1-0.1,2.4-0.1,4.2-0.1
				c1.7,0,3,0.3,3.9,1c0.9,0.7,1.3,1.7,1.3,3c0,1-0.3,1.8-1,2.6c-0.6,0.7-1.5,1.2-2.6,1.4L329.2,84.8z M321.8,77c0.2,0,0.6,0,0.9,0
				c0.8,0,1.4-0.2,1.9-0.6c0.5-0.4,0.7-0.9,0.7-1.5c0-0.7-0.2-1.1-0.6-1.5c-0.4-0.3-1-0.5-1.8-0.5c-0.4,0-0.8,0-1,0.1V77z
				 M346.5,73.4c-0.9-0.3-1.8-0.4-2.6-0.4c-0.7,0-1.3,0.1-1.7,0.4c-0.4,0.3-0.6,0.7-0.6,1.2c0,0.3,0.1,0.6,0.4,0.9
				c0.3,0.3,0.9,0.6,1.9,1c0.8,0.3,1.4,0.6,1.9,0.9c0.5,0.3,0.9,0.7,1.2,1.2c0.3,0.5,0.5,1.1,0.5,1.9c0,1.3-0.5,2.4-1.6,3.3
				c-1,0.9-2.4,1.3-4.1,1.3c-1,0-1.9-0.1-2.8-0.3V82c1.1,0.3,2.1,0.5,3.1,0.5c0.7,0,1.3-0.1,1.7-0.4c0.4-0.3,0.6-0.7,0.6-1.3
				c0-0.4-0.1-0.7-0.4-1c-0.3-0.3-0.9-0.6-2-1c-0.8-0.3-1.4-0.6-1.9-0.9c-0.5-0.3-0.9-0.7-1.2-1.2c-0.3-0.5-0.5-1.1-0.5-1.9
				c0-1.3,0.5-2.3,1.5-3.1c1-0.8,2.3-1.2,4-1.2c0.9,0,1.7,0.1,2.4,0.2V73.4z"/>
		</g>
	</g>
</g>
</svg>
