<?xml version="1.0" encoding="utf-8"?>
<!-- Generator: Adobe Illustrator 16.0.0, SVG Export Plug-In . SVG Version: 6.00 Build 0)  -->
<!DOCTYPE svg PUBLIC "-//W3C//DTD SVG 1.1//EN" "http://www.w3.org/Graphics/SVG/1.1/DTD/svg11.dtd">
<svg version="1.1" id="Layer_1" xmlns="http://www.w3.org/2000/svg" xmlns:xlink="http://www.w3.org/1999/xlink" x="0px" y="0px"
	 width="426.2px" height="113.8px" viewBox="94.4 351.7 426.2 113.8" enable-background="new 94.4 351.7 426.2 113.8"
	 xml:space="preserve">
<g id="Stacked_HZ_Logo">
	<g>
		<circle fill="#FFFFFF" cx="98.6" cy="408.6" r="4.2"/>
		<circle fill="#FFFFFF" cx="232.9" cy="408.6" r="4.2"/>
		<g>
			<path fill="#FFFFFF" d="M158.8,415.9h-49.4c-0.2,0-0.3,0.1-0.3,0.3c3,27,25.4,48.2,53,49.3c0.1,0,0.3-0.1,0.3-0.3v-47.4
				C161,417.5,159.8,416.8,158.8,415.9z"/>
			<path fill="#FFFFFF" d="M169.1,352v47.4c1.4,0.3,2.6,1,3.6,1.899h49.4c0.2,0,0.3-0.1,0.3-0.3c-3-27-25.4-48.2-53-49.3
				C169.2,351.7,169.1,351.8,169.1,352z"/>
		</g>
		<path fill="#4EC5D8" d="M169.1,417.8V454.9c0,0.1,0.1,0.3,0.3,0.3c21.8-1.101,39.6-17.7,42.6-39c0-0.2-0.1-0.3-0.3-0.3h-39
			C171.7,416.8,170.5,417.5,169.1,417.8z"/>
		<path fill="#4EC5D8" d="M162.4,399.4V362.3c0-0.1-0.1-0.3-0.3-0.3c-21.8,1.1-39.6,17.7-42.6,39c0,0.2,0.1,0.3,0.3,0.3h39
			C159.8,400.4,161,399.7,162.4,399.4z"/>
		<path fill="#FFFFFF" d="M156.5,406.6H97.3v3.9h59.2c-0.2-0.6-0.3-1.3-0.3-2S156.4,407.3,156.5,406.6z"/>
		<path fill="#FFFFFF" d="M175,406.6c0.2,0.601,0.3,1.301,0.3,2c0,0.7-0.1,1.301-0.3,2h58.3V406.7H175V406.6z"/>
		<circle fill="#FFFFFF" cx="165.7" cy="408.6" r="4.2"/>
	</g>
	<g>
		<path fill="#FFFFFF" d="M268.4,407.9h-6.5V380h6.5V407.9z"/>
		<path fill="#FFFFFF" d="M278.5,380c0.2,0,0.4,0.1,0.5,0.1c0.2,0.1,0.3,0.2,0.4,0.3s0.3,0.3,0.5,0.5l13.3,16.8
			c-0.1-0.5-0.1-1.101-0.1-1.601c0-0.5,0-1,0-1.399v-14.8h5.7v27.9h-3.4c-0.5,0-0.9-0.1-1.3-0.2c-0.3-0.199-0.7-0.399-1-0.8
			l-13.2-16.6c0,0.5,0.1,1,0.1,1.4c0,0.5,0,0.9,0,1.3v15h-5.7V380h3.4C278.1,379.9,278.3,379.9,278.5,380z"/>
		<path fill="#FFFFFF" d="M324.4,379.9v5.1h-7.9v22.8H310V385h-7.9v-5.1H324.4z"/>
		<path fill="#FFFFFF" d="M345.8,379.9v5h-11.5v6.5h8.8v4.8h-8.8v6.7h11.5v5h-18V380h18V379.9z"/>
		<path fill="#FFFFFF" d="M356.8,397.5v10.3h-6.5v-27.9h9.101c2,0,3.699,0.2,5.199,0.6c1.4,0.4,2.601,1,3.5,1.7
			c0.9,0.7,1.601,1.6,2,2.6c0.4,1,0.601,2.1,0.601,3.3c0,0.9-0.101,1.8-0.4,2.6c-0.2,0.8-0.6,1.6-1.1,2.2
			c-0.5,0.7-1.101,1.3-1.8,1.8c-0.7,0.5-1.5,1-2.4,1.3c0.4,0.2,0.8,0.5,1.2,0.8c0.399,0.3,0.7,0.7,1,1.2l5.899,9.7H367.2
			c-1.101,0-1.9-0.4-2.3-1.2l-4.601-8.1c-0.2-0.4-0.399-0.601-0.7-0.801c-0.3-0.199-0.699-0.199-1.199-0.199H356.8V397.5z
			 M356.8,393.1h2.601c0.899,0,1.6-0.1,2.3-0.3c0.6-0.2,1.1-0.5,1.5-0.9c0.399-0.4,0.7-0.9,0.899-1.4c0.2-0.5,0.301-1.1,0.301-1.7
			c0-1.2-0.4-2.2-1.2-2.9c-0.8-0.7-2-1-3.7-1h-2.6v8.2H356.8z"/>
		<path fill="#FFFFFF" d="M402.5,407.9h-5c-0.6,0-1-0.101-1.4-0.4c-0.399-0.3-0.6-0.6-0.8-1l-1.6-4.9H383.1l-1.6,4.9
			c-0.1,0.4-0.4,0.7-0.7,1c-0.399,0.3-0.8,0.4-1.399,0.4H374.3l10.8-27.9h6.601L402.5,407.9z M384.6,397.2h7.601l-2.601-7.6
			c-0.199-0.5-0.399-1.1-0.6-1.7s-0.4-1.4-0.7-2.1c-0.2,0.8-0.399,1.5-0.6,2.2s-0.4,1.2-0.601,1.7L384.6,397.2z"/>
		<path fill="#FFFFFF" d="M423.2,400.6c0.2,0,0.3,0,0.5,0.101c0.2,0.1,0.3,0.2,0.399,0.3l2.601,2.7c-1.101,1.5-2.5,2.6-4.2,3.3
			s-3.7,1.1-6,1.1c-2.1,0-4-0.399-5.7-1.1s-3.1-1.7-4.3-3s-2.1-2.8-2.7-4.5c-0.6-1.7-0.899-3.6-0.899-5.7c0-2.1,0.399-4,1.1-5.7
			c0.7-1.7,1.7-3.2,3-4.5c1.3-1.3,2.8-2.2,4.6-3c1.801-0.7,3.801-1.1,5.9-1.1c1,0,2,0.1,3,0.3c0.9,0.2,1.8,0.4,2.6,0.8
			c0.801,0.3,1.5,0.7,2.2,1.2s1.3,1,1.8,1.5l-2.199,2.9c-0.101,0.2-0.301,0.3-0.5,0.5c-0.2,0.1-0.5,0.2-0.801,0.2
			c-0.199,0-0.399-0.1-0.699-0.2c-0.2-0.1-0.4-0.2-0.7-0.4c-0.2-0.1-0.5-0.3-0.8-0.5c-0.301-0.2-0.601-0.3-1-0.5
			c-0.4-0.1-0.801-0.3-1.301-0.4s-1.1-0.2-1.8-0.2c-1.2,0-2.2,0.2-3.2,0.6c-1,0.4-1.8,1-2.5,1.8c-0.699,0.8-1.199,1.7-1.6,2.8
			s-0.6,2.3-0.6,3.7c0,1.4,0.199,2.7,0.6,3.8c0.4,1.1,0.9,2,1.6,2.8c0.7,0.8,1.5,1.3,2.301,1.7c0.8,0.399,1.899,0.6,2.899,0.6
			c0.601,0,1.101,0,1.601-0.1c0.5-0.101,0.899-0.2,1.399-0.301c0.4-0.1,0.8-0.3,1.2-0.5c0.4-0.199,0.8-0.5,1.1-0.8
			c0.2-0.1,0.301-0.2,0.5-0.3C422.8,400.7,423,400.6,423.2,400.6z"/>
		<path fill="#FFFFFF" d="M450.7,379.9v5.1h-7.9v22.8h-6.5V385H428.4v-5.1H450.7z"/>
		<path fill="#FFFFFF" d="M461.2,407.9h-6.5V380h6.5V407.9z"/>
		<path fill="#FFFFFF" d="M464.8,379.9h5.2c0.6,0,1,0.1,1.4,0.4c0.399,0.3,0.6,0.6,0.8,1l5.399,15c0.2,0.7,0.5,1.4,0.7,2.101
			c0.2,0.8,0.5,1.6,0.7,2.399c0.2-0.8,0.4-1.6,0.6-2.399c0.2-0.801,0.5-1.5,0.7-2.101l5.4-15c0.1-0.4,0.399-0.7,0.7-1
			c0.399-0.3,0.8-0.4,1.399-0.4h5.3L481.9,407.8H476L464.8,379.9z"/>
		<path fill="#FFFFFF" d="M514.1,379.9v5h-11.5v6.5h8.801v4.8H502.6v6.7h11.5v5h-18V380h18V379.9z"/>
	</g>
	<g>
		<path fill="#FFFFFF" d="M265.8,441.2h-3.7V415.1h3.7V441.2z"/>
		<path fill="#FFFFFF" d="M275.1,415.3c0.2,0.101,0.3,0.2,0.5,0.5l16,19.7c0-0.3-0.1-0.6-0.1-0.9c0-0.3,0-0.6,0-0.899v-18.5h3.3
			v26.1H293c-0.3,0-0.5,0-0.7-0.1c-0.2-0.101-0.4-0.3-0.6-0.5l-16-19.601c0,0.301,0,0.601,0.1,0.9c0,0.3,0,0.6,0,0.8V441.4h-3.3
			V415.3h1.9C274.7,415.1,275,415.2,275.1,415.3z"/>
		<path fill="#FFFFFF" d="M319.7,415.1v3h-8.9V441.2H307V418.1h-9v-3H319.7z"/>
		<path fill="#FFFFFF" d="M339.9,415.1v2.9H326.6v8.7h10.7v2.8h-10.7v8.9H339.9v2.899h-17v-26.1h17V415.1z"/>
		<path fill="#FFFFFF" d="M348.2,438.3h12v3h-15.7v-26.1h3.7V438.3z"/>
		<path fill="#FFFFFF" d="M367.3,438.3h12v3h-15.7v-26.1h3.7V438.3z"/>
		<path fill="#FFFFFF" d="M387,441.2h-3.7V415.1h3.7V441.2z"/>
		<path fill="#FFFFFF" d="M406,438.7c0.7,0,1.4,0,2.1-0.101c0.601-0.1,1.2-0.199,1.801-0.3c0.6-0.1,1.1-0.3,1.6-0.5s1-0.399,1.5-0.6
			v-5.8h-4.3c-0.2,0-0.4-0.101-0.601-0.2c-0.1-0.101-0.199-0.3-0.199-0.5v-2h8.5v10c-0.7,0.5-1.4,0.899-2.2,1.2
			c-0.8,0.399-1.601,0.6-2.4,0.899c-0.899,0.2-1.8,0.4-2.7,0.5c-1,0.101-2,0.2-3.199,0.2c-2,0-3.801-0.3-5.5-1
			c-1.7-0.6-3.101-1.6-4.301-2.7c-1.199-1.2-2.199-2.6-2.8-4.2c-0.7-1.6-1-3.399-1-5.399s0.3-3.8,1-5.4c0.7-1.6,1.601-3,2.8-4.2
			c1.2-1.199,2.7-2.1,4.5-2.699c1.7-0.601,3.7-1,5.9-1c1.1,0,2.1,0.1,3,0.199c0.9,0.2,1.8,0.4,2.6,0.7c0.801,0.3,1.5,0.601,2.2,1
			c0.7,0.4,1.3,0.9,1.9,1.4l-1.101,1.6c-0.199,0.3-0.5,0.5-0.8,0.5c-0.2,0-0.399-0.1-0.7-0.2c-0.3-0.199-0.699-0.399-1.1-0.6
			s-0.9-0.5-1.5-0.7s-1.2-0.399-2-0.6s-1.7-0.2-2.8-0.2c-1.601,0-3,0.2-4.2,0.7c-1.3,0.5-2.3,1.2-3.2,2.1c-0.899,0.9-1.6,2-2,3.2
			c-0.5,1.3-0.7,2.7-0.7,4.3c0,1.7,0.2,3.101,0.7,4.4s1.2,2.399,2.101,3.3c0.899,0.9,2,1.6,3.199,2.1
			C403.1,438.4,404.5,438.7,406,438.7z"/>
		<path fill="#FFFFFF" d="M438.2,415.1v2.9H425v8.7h10.7v2.8H425v8.9h13.3v2.899h-17v-26.1h16.9V415.1z"/>
		<path fill="#FFFFFF" d="M445.5,415.3c0.2,0.101,0.3,0.2,0.5,0.5l16,19.7c0-0.3-0.1-0.6-0.1-0.9c0-0.3,0-0.6,0-0.899v-18.5h3.3
			v26.1h-1.9c-0.3,0-0.5,0-0.7-0.1c-0.199-0.101-0.399-0.3-0.6-0.5L446,421.1c0,0.301,0,0.601,0.1,0.9c0,0.3,0,0.6,0,0.8V441.4h-3.3
			V415.3h1.9C445.1,415.1,445.4,415.2,445.5,415.3z"/>
		<path fill="#FFFFFF" d="M490.7,435.8c0.2,0,0.399,0.101,0.6,0.2l1.5,1.5c-1.1,1.2-2.5,2.2-4.1,2.9c-1.601,0.699-3.601,1-5.8,1
			c-2,0-3.801-0.301-5.4-1c-1.6-0.601-3-1.601-4.1-2.7c-1.101-1.2-2-2.601-2.7-4.2c-0.601-1.6-0.9-3.4-0.9-5.4s0.3-3.8,1-5.399
			c0.7-1.601,1.601-3,2.8-4.2c1.2-1.2,2.7-2.1,4.4-2.7c1.7-0.6,3.6-1,5.6-1s3.801,0.3,5.301,0.9c1.5,0.6,2.8,1.399,3.899,2.399
			l-1.2,1.601c-0.1,0.1-0.199,0.2-0.3,0.3c-0.1,0.1-0.3,0.1-0.5,0.1s-0.3-0.1-0.5-0.199c-0.2-0.101-0.399-0.301-0.7-0.4
			c-0.3-0.2-0.6-0.4-0.899-0.5c-0.3-0.2-0.8-0.4-1.2-0.5c-0.5-0.2-1-0.3-1.7-0.4c-0.6-0.1-1.399-0.199-2.2-0.199
			c-1.5,0-2.8,0.199-4.1,0.699c-1.2,0.5-2.3,1.2-3.2,2c-0.899,0.9-1.6,2-2.1,3.2c-0.5,1.3-0.7,2.7-0.7,4.3
			c0,1.601,0.2,3.101,0.7,4.4s1.2,2.4,2,3.2c0.899,0.899,1.899,1.6,3,2c1.2,0.5,2.399,0.7,3.8,0.7c0.8,0,1.6,0,2.2-0.101
			c0.7-0.1,1.3-0.2,1.8-0.399c0.6-0.2,1.1-0.4,1.6-0.7s1-0.7,1.5-1.101C490.3,435.9,490.5,435.8,490.7,435.8z"/>
		<path fill="#FFFFFF" d="M513.9,415.1v2.9H500.6v8.7h10.7v2.8h-10.7v8.9H513.9v2.899h-17v-26.1h17V415.1z"/>
	</g>
	<g>
		<path fill="#FFFFFF" d="M516,416.7c0-0.2,0-0.4,0.1-0.601c0.101-0.199,0.101-0.399,0.2-0.5c0.101-0.199,0.2-0.3,0.4-0.5
			c0.1-0.1,0.3-0.3,0.5-0.399c0.2-0.101,0.3-0.2,0.5-0.2c0.2-0.1,0.399-0.1,0.6-0.1s0.4,0,0.601,0.1c0.199,0.1,0.399,0.1,0.5,0.2
			c0.199,0.1,0.3,0.2,0.5,0.399c0.1,0.101,0.3,0.301,0.399,0.5c0.101,0.2,0.2,0.301,0.2,0.5c0.1,0.2,0.1,0.4,0.1,0.601
			s0,0.399-0.1,0.6s-0.1,0.4-0.2,0.5c-0.1,0.101-0.2,0.3-0.399,0.5c-0.101,0.101-0.301,0.3-0.5,0.4c-0.2,0.1-0.301,0.2-0.5,0.2
			c-0.2,0.1-0.4,0.1-0.601,0.1s-0.399,0-0.6-0.1c-0.2-0.101-0.4-0.101-0.5-0.2c-0.2-0.101-0.3-0.2-0.5-0.4
			c-0.101-0.1-0.3-0.3-0.4-0.5c-0.1-0.2-0.2-0.3-0.2-0.5C516,417.1,516,416.9,516,416.7z M516.4,416.7c0,0.3,0,0.5,0.1,0.7
			c0.1,0.199,0.2,0.399,0.4,0.6c0.199,0.2,0.399,0.3,0.6,0.4c0.2,0.1,0.5,0.1,0.7,0.1c0.3,0,0.5,0,0.7-0.1
			c0.199-0.101,0.399-0.2,0.6-0.4s0.3-0.4,0.4-0.6c0.1-0.2,0.1-0.5,0.1-0.7s0-0.3-0.1-0.5c0-0.2-0.101-0.3-0.2-0.5
			c-0.101-0.2-0.2-0.3-0.3-0.4c-0.101-0.1-0.2-0.2-0.4-0.3c-0.1-0.1-0.3-0.1-0.4-0.2c-0.199,0-0.3-0.1-0.5-0.1
			c-0.199,0-0.3,0-0.5,0.1c-0.199,0-0.3,0.101-0.399,0.2c-0.101,0.1-0.3,0.2-0.4,0.3c-0.1,0.101-0.2,0.2-0.3,0.4
			c-0.1,0.1-0.1,0.3-0.2,0.5C516.4,416.4,516.4,416.6,516.4,416.7z M517.9,417.1v1h-0.7V415.4h1c0.399,0,0.7,0.1,0.8,0.199
			c0.2,0.101,0.3,0.301,0.3,0.601c0,0.2,0,0.3-0.1,0.5c-0.101,0.1-0.2,0.2-0.4,0.3l0.101,0.1l0.1,0.101l0.6,0.899H519
			c-0.1,0-0.2,0-0.2-0.1l-0.399-0.8c0,0,0-0.101-0.101-0.101h-0.1H517.9z M517.9,416.6h0.3c0.1,0,0.2,0,0.3,0s0.1,0,0.2-0.1l0.1-0.1
			c0-0.101,0-0.101,0-0.2c0-0.101,0-0.101,0-0.2c0,0,0-0.1-0.1-0.1L518.6,415.8c-0.1,0-0.1,0-0.199,0H518.1v0.8H517.9z"/>
	</g>
</g>
</svg>
