<?xml version="1.0" encoding="utf-8"?>
<!-- Generator: Adobe Illustrator 18.1.0, SVG Export Plug-In . SVG Version: 6.00 Build 0)  -->
<!DOCTYPE svg PUBLIC "-//W3C//DTD SVG 1.1//EN" "http://www.w3.org/Graphics/SVG/1.1/DTD/svg11.dtd">
<svg xmlns="http://www.w3.org/2000/svg" xmlns:xlink="http://www.w3.org/1999/xlink" version="1.1" id="Layer_1" x="0px" y="0px" viewBox="-26 164 119.8 26" xml:space="preserve">
<g>
	<path fill="#333333" d="M-9.8,180c0,2.7-0.2,4.3-0.8,5.6c-0.5,1.1-1.5,2.2-2.5,2.8c-1.5,1-3.2,1.4-4.8,1.4c-1.1,0-6.8-0.4-7.8-6.2   c-0.1-0.5-0.1-1.1-0.2-1.7h5.5c0,0.2,0,0.4,0.1,0.7c0.4,1.6,1.4,2.6,2.7,2.6c1.4,0,2.2-0.8,2.5-1.7c0.3-0.8,0.3-1.7,0.3-2.5V164   h5.1L-9.8,180L-9.8,180z"/>
	<path fill="#333333" d="M-7.3,179.9c0-4.8,3.5-9.9,10.1-9.9c6.6,0,10.1,5.1,10.1,10c0,4.9-3.5,10-10.1,10   C-3.7,189.9-7.3,184.8-7.3,179.9C-7.3,179.9-7.3,179.9-7.3,179.9z M-2.8,180c0,3.3,2.5,5.7,5.6,5.7c3.1,0,5.6-2.4,5.6-5.8   c0-3.3-2.5-5.8-5.6-5.8C-0.3,174.2-2.8,176.6-2.8,180L-2.8,180z"/>
	<path fill="#333333" d="M15.8,164h4.5v6.6v2.3c1.9-2.3,4.6-2.9,6.3-2.9c4.5,0,9.4,3.3,9.4,9.9c0,6.4-4.5,10.1-9.6,10.1   c-3,0-5.3-1.4-6.3-3.3v2.7h-4.3L15.8,164L15.8,164z M31.5,179.9c0-3.1-2.4-5.8-5.7-5.8c-3.5,0-5.7,2.7-5.7,5.8   c0,3.2,2.2,5.8,5.6,5.8C29.4,185.8,31.5,182.8,31.5,179.9L31.5,179.9z"/>
	<path fill="#333333" d="M47.6,189.4h-4.4l-7-18.9h4.7l4.5,13.2l4.5-13.2h4.7L47.6,189.4z"/>
	<path fill="#333333" d="M56.7,164h4.5v4h-4.5V164z M56.7,170.5h4.5v18.9h-4.5V170.5z"/>
	<path fill="#333333" d="M66.3,174h-3.1v-3.5h3.1V164h4.5v6.6H74v3.5h-3.2v15.4h-4.5V174z"/>
	<path fill="#333333" d="M78.6,181.4c0.2,3,2.9,4.7,5.5,4.7c2.2,0,3.7-1,4.5-2.5h4.6c-0.9,2.1-2.2,3.7-3.8,4.7   c-1.6,1.1-3.4,1.6-5.4,1.6c-5.8,0-10-4.7-10-10c0-5.4,4.2-10.1,9.9-10.1c2.8,0,5.3,1.1,7,2.9c2.3,2.4,3.2,5.3,2.8,8.6L78.6,181.4   L78.6,181.4z M89.3,178c-0.2-1.8-2.1-4.3-5.4-4.3c-3.3,0-5.2,2.4-5.3,4.3H89.3z"/>
</g>
</svg>
